<svg width="56" height="64" viewBox="0 0 56 64" fill="none" xmlns="http://www.w3.org/2000/svg">
<path d="M32.8988 52.3834L39.0282 62.9998L40.7052 56.7409L46.9641 58.418L41.4359 48.8428M22.1248 52.3124L15.9545 62.9998L14.2774 56.7409L8.01855 58.418L13.4505 49.0094L22.1248 52.3124Z" stroke="#12141D" stroke-width="2" stroke-linejoin="round"/>
<path d="M46.9638 27.4912C46.9638 32.6557 44.9123 37.6085 41.2604 41.2604C37.6086 44.9122 32.6557 46.9638 27.4912 46.9638C22.3267 46.9638 17.3738 44.9122 13.722 41.2604C10.0701 37.6085 8.01855 32.6557 8.01855 27.4912C8.01855 22.3267 10.0701 17.3739 13.722 13.722C17.3738 10.0702 22.3267 8.01855 27.4912 8.01855C32.6557 8.01855 37.6086 10.0702 41.2604 13.722C44.9123 17.3739 46.9638 22.3267 46.9638 27.4912Z" stroke="#12141D" stroke-width="2" stroke-linecap="round" stroke-linejoin="round"/>
<path d="M43.5267 27.4904C43.5267 31.7435 41.8372 35.8223 38.8298 38.8297C35.8224 41.8371 31.7435 43.5267 27.4904 43.5267C25.3845 43.5267 23.2992 43.1119 21.3536 42.306C19.408 41.5001 17.6401 40.3188 16.151 38.8297C14.6619 37.3406 13.4807 35.5729 12.6748 33.6273C11.8689 31.6817 11.4541 29.5963 11.4541 27.4904C11.4541 25.3845 11.8689 23.2994 12.6748 21.3537C13.4807 19.4081 14.6619 17.6402 16.151 16.1511C17.6401 14.662 19.408 13.4807 21.3536 12.6748C23.2992 11.8689 25.3845 11.4541 27.4904 11.4541C31.7435 11.4541 35.8224 13.1437 38.8298 16.1511C41.8372 19.1585 43.5267 23.2373 43.5267 27.4904Z" fill="#F8B84E"/>
<path d="M22.8329 0.00437956C22.1517 0.125797 19.7602 3.60462 19.1102 3.84356C18.4602 4.08251 14.416 2.9707 13.817 3.32006C13.2179 3.66942 12.1499 7.76605 11.62 8.21507C11.0902 8.66408 6.91015 9.01283 6.46551 9.54844C6.0209 10.0836 6.40412 14.3037 6.05835 14.9085C5.71249 15.5138 1.90106 17.2901 1.66448 17.9466C1.42789 18.6032 3.2164 22.4311 3.09629 23.1193C2.97624 23.8075 0 26.7921 0 27.4908C0 28.1896 2.97618 31.1741 3.09629 31.8623C3.21633 32.5505 1.42789 36.3782 1.66448 37.0347C1.90106 37.6913 5.71249 39.4678 6.05835 40.0729C6.40421 40.6779 6.02078 44.8981 6.46551 45.4332C6.91015 45.9686 11.0902 46.3173 11.62 46.7666C12.1499 47.2156 13.2179 51.3122 13.817 51.6616C14.416 52.011 18.4602 50.8992 19.1102 51.1381C19.7602 51.377 22.1517 54.856 22.8329 54.9771C23.5141 55.0986 26.9378 52.6549 27.6295 52.6549C28.3212 52.6549 31.7493 55.0986 32.4305 54.9771C33.1117 54.8557 35.5032 51.377 36.1532 51.1381C36.8032 50.8992 40.8474 52.011 41.4465 51.6616C42.0455 51.3122 43.1135 47.2156 43.6434 46.7666C44.1733 46.3173 48.3533 45.9686 48.7979 45.4332C49.2426 44.8981 48.8592 40.6779 49.2051 40.0729C49.551 39.4678 53.3579 37.6913 53.5945 37.0347C53.8311 36.3782 52.0426 32.5505 52.1627 31.8623C52.2828 31.1741 55.2635 28.1896 55.2635 27.4908C55.2635 26.7921 52.2828 23.8075 52.1627 23.1193C52.0426 22.4311 53.8311 18.6034 53.5945 17.9466C53.3579 17.2901 49.551 15.5135 49.2051 14.9085C48.8592 14.3037 49.2426 10.0836 48.7979 9.54844C48.3533 9.01283 44.1733 8.66431 43.6434 8.21507C43.1135 7.76605 42.0455 3.66919 41.4465 3.32006C40.8474 2.97047 36.8032 4.08223 36.1532 3.84329C35.5032 3.60434 33.1117 0.125568 32.4305 0.00437956C31.7493 -0.117038 28.3212 2.32646 27.6295 2.32646C26.9378 2.32646 23.5141 -0.117038 22.8329 0.00437956ZM27.4908 6.87274C38.8643 6.87274 48.1089 16.1174 48.1089 27.4908C48.1089 38.8645 38.8643 48.1089 27.4908 48.1089C16.1173 48.1089 6.8727 38.8645 6.8727 27.4908C6.8727 16.1174 16.1173 6.87274 27.4908 6.87274Z" fill="#25B39E"/>
<path d="M33.9162 37.1681C33.1912 37.7007 28.4447 34.4573 27.5446 34.4627C26.6445 34.468 21.9385 37.7699 21.207 37.2463C20.4755 36.7226 22.099 31.2142 21.8155 30.3614C21.5321 29.5085 16.9321 26.061 17.205 25.2048C17.4778 24.3485 23.2277 24.1876 23.9527 23.6551C24.6776 23.1225 26.5407 17.69 27.4408 17.6845C28.3409 17.6792 30.2711 23.088 31.0025 23.6116C31.734 24.1353 37.4854 24.2255 37.7689 25.0782C38.0523 25.931 33.4953 29.4349 33.2224 30.2911C32.9496 31.1474 34.6411 36.6354 33.9162 37.1681Z" fill="#25B39E" stroke="#12141D" stroke-width="2" stroke-linecap="round" stroke-linejoin="round"/>
</svg>
